<?xml version="1.0" encoding="utf-8"?>
<!-- Generator: Adobe Illustrator 16.0.0, SVG Export Plug-In . SVG Version: 6.00 Build 0)  -->
<!DOCTYPE svg PUBLIC "-//W3C//DTD SVG 1.1//EN" "http://www.w3.org/Graphics/SVG/1.1/DTD/svg11.dtd">
<svg version="1.1" id="Layer_1" xmlns="http://www.w3.org/2000/svg" xmlns:xlink="http://www.w3.org/1999/xlink" x="0px" y="0px"
	 width="100px" height="100px" viewBox="0 0 100 100" enable-background="new 0 0 100 100" xml:space="preserve">
<g>
	<path fill-rule="evenodd" clip-rule="evenodd" d="M33.442,49.432c0.698-1.842,1.56-3.448,2.783-4.839
		c2.683-3.05,6.072-4.694,10.101-5.066c5.678-0.524,10.344,1.668,14.429,5.396c1.692,1.544,3.191,3.275,4.662,5.027
		c0.313,0.374,0.45,0.407,0.783,0.013c1.894-2.25,3.781-4.51,6.112-6.338c2.688-2.108,5.65-3.63,9.086-4.032
		c8.492-0.995,15.589,3.63,17.396,12.395c0.76,3.687,0.526,7.332-0.751,10.886c-2.361,6.568-7.83,10.317-14.818,10.235
		c-4.257-0.05-7.891-1.7-11.206-4.214c-2.166-1.643-4.021-3.614-5.806-5.649c-0.3-0.341-0.439-0.417-0.803-0.039
		c-1.825,1.895-3.558,3.884-5.607,5.552c-2.591,2.109-5.451,3.694-8.8,4.149c-5.923,0.805-11.038-0.756-15.015-5.403
		c-0.901-1.054-1.581-2.255-2.139-3.524c-0.07-0.16-0.091-0.353-0.272-0.487c-0.78,1.683-1.746,3.233-3.014,4.58
		c-3.192,3.394-7.129,5.164-11.776,5.328c-3.358,0.119-6.647-0.309-9.71-1.761c-5.131-2.432-7.953-6.48-8.303-12.197
		c-0.026-0.435,0.094-0.545,0.525-0.543c2.76,0.02,5.52,0.02,8.279,0c0.414-0.003,0.53,0.119,0.6,0.524
		c0.531,3.149,2.225,5.342,5.398,6.13c4.428,1.099,8.496-1.414,9.659-5.972c0.783-3.068,0.445-6.001-1.589-8.556
		c-1.35-1.696-3.184-2.522-5.337-2.674c-3.098-0.218-5.632,0.803-7.462,3.375c-0.17,0.241-0.368,0.3-0.643,0.299
		c-2.488-0.007-4.975-0.014-7.462,0.005c-0.433,0.003-0.521-0.118-0.447-0.529c1.291-7.176,2.57-14.354,3.852-21.532
		c0.175-0.982,0.354-1.964,0.516-2.948c0.052-0.323,0.176-0.442,0.524-0.441c8.261,0.011,16.521,0.011,24.781,0
		c0.395-0.001,0.479,0.128,0.477,0.497c-0.017,2.214-0.021,4.43,0.003,6.644c0.004,0.451-0.111,0.575-0.569,0.573
		c-5.918-0.016-11.836-0.005-17.754-0.021c-0.491-0.001-0.71,0.08-0.802,0.632c-0.521,3.149-1.096,6.29-1.647,9.434
		c-0.023,0.133-0.117,0.314,0.027,0.402c0.16,0.098,0.25-0.096,0.345-0.188c2.712-2.611,6.02-3.409,9.668-3.214
		c3.509,0.187,6.505,1.504,8.976,4c1.032,1.041,1.834,2.246,2.481,3.557C33.244,49.039,33.317,49.181,33.442,49.432z M90.628,56.228
		c0.013-0.318-0.04-0.786-0.099-1.254c-0.524-4.178-4.043-6.88-8.211-6.33c-2.188,0.29-3.993,1.372-5.693,2.675
		c-1.895,1.454-3.484,3.229-5.121,4.953c-0.22,0.231-0.122,0.353,0.039,0.533c1.15,1.288,2.338,2.54,3.685,3.624
		c2.237,1.8,4.658,3.186,7.608,3.459c3.322,0.309,6.014-1.246,7.202-4.257C90.45,58.589,90.622,57.501,90.628,56.228z
		 M40.996,56.634c0.016,0.21,0.034,0.555,0.064,0.897c0.282,3.235,2.442,5.667,5.573,6.239c1.721,0.315,3.394,0.086,5.017-0.545
		c3.465-1.351,6.105-3.778,8.519-6.506c0.177-0.2,0.09-0.298-0.049-0.443c-1.728-1.813-3.49-3.591-5.531-5.062
		c-1.417-1.021-2.908-1.932-4.623-2.356c-2.611-0.646-4.989-0.275-6.846,1.851C41.68,52.357,40.992,54.31,40.996,56.634z"/>
</g>
</svg>
